<svg version="1.1" id="Layer_1" xmlns="http://www.w3.org/2000/svg" xmlns:xlink="http://www.w3.org/1999/xlink" x="0px" y="0px"
	 width="100%" viewBox="0 0 560 560" enable-background="new 0 0 560 560" xml:space="preserve">
<path fill="#000000" opacity="1.000000" stroke="none" 
	d="
M413.667297,215.070221 
	C413.746033,207.689392 413.746002,207.677658 420.449890,207.660431 
	C426.614990,207.644592 432.793152,207.903351 438.940948,207.577011 
	C443.501709,207.334930 445.074280,208.887695 445.023499,213.508163 
	C444.823975,231.668076 444.945129,249.831497 444.946991,267.993622 
	C444.949219,289.821472 444.963409,311.649353 444.946228,333.477203 
	C444.940826,340.326355 444.902161,340.331085 437.948547,340.335327 
	C431.783417,340.339111 425.601105,340.046875 419.458679,340.418823 
	C414.661469,340.709259 413.529419,338.732971 413.600250,334.335114 
	C413.812195,321.175171 413.552399,308.007843 413.745087,294.847290 
	C413.804688,290.778351 412.562317,289.198883 408.349518,289.330841 
	C400.192932,289.586334 392.021729,289.471527 383.858398,289.367004 
	C380.700531,289.326599 379.539398,290.297668 379.611877,293.738007 
	C379.903046,307.560028 379.772949,321.390411 379.960907,335.215454 
	C380.013092,339.053223 378.657379,340.550903 374.704254,340.406403 
	C367.715149,340.151001 360.707520,340.207886 353.713257,340.372894 
	C350.217682,340.455353 348.604950,339.480286 348.614410,335.620239 
	C348.715027,294.464111 348.711975,253.307587 348.634552,212.151367 
	C348.627838,208.582642 350.075073,207.543716 353.405212,207.616623 
	C360.400055,207.769714 367.408112,207.855179 374.396088,207.586746 
	C378.543579,207.427414 379.980316,208.957520 379.938446,213.034973 
	C379.803375,226.196686 380.111542,239.365021 379.835968,252.522156 
	C379.733917,257.394562 381.347443,258.944733 386.130066,258.737091 
	C393.780365,258.404999 401.458923,258.518127 409.118988,258.708221 
	C412.629883,258.795319 413.757507,257.495026 413.719421,254.050934 
	C413.577576,241.222610 413.665771,228.391739 413.667297,215.070221 
z"/>
<path fill="#000000" opacity="1.000000" stroke="none" 
	d="
M122.821083,307.865906 
	C124.847000,305.040192 125.861366,301.923370 128.489929,299.707825 
	C132.962616,302.554779 137.227631,305.412170 141.629730,308.039948 
	C149.279160,312.606110 157.514252,314.681641 166.484985,313.711304 
	C173.296051,312.974579 177.300919,310.137726 178.748856,304.603943 
	C180.053116,299.619293 178.144669,295.595856 172.414871,291.785889 
	C167.126740,288.269592 161.293182,285.773254 155.528336,283.170776 
	C150.664368,280.975006 145.965744,278.517029 141.538544,275.504456 
	C115.797562,257.988586 120.835197,224.858246 144.972321,211.246597 
	C159.169174,203.240555 173.940094,203.946457 188.953995,208.259766 
	C194.897079,209.967163 200.490982,212.513092 205.910873,215.475708 
	C208.544022,216.915054 209.394791,218.499802 207.773758,221.479507 
	C204.132233,228.173157 200.833984,235.053574 197.153519,242.337784 
	C194.093567,240.850601 191.520172,239.434906 188.822510,238.319809 
	C180.795792,235.001892 172.729004,231.775330 163.747574,234.289886 
	C159.491119,235.481583 156.136917,237.511887 155.248352,242.333786 
	C154.350143,247.208069 156.841019,250.262512 160.503281,252.745651 
	C166.183777,256.597260 172.458954,259.267883 178.749863,261.925537 
	C187.063385,265.437683 194.793320,269.812622 201.694992,275.817322 
	C222.146988,293.611267 213.074570,327.125946 192.589066,336.520874 
	C172.411865,345.774475 152.232178,344.647308 132.070999,336.713715 
	C126.500160,334.521576 121.297455,331.529327 116.324890,328.114807 
	C113.282990,326.026001 113.066360,323.959595 114.928917,321.027496 
	C117.605812,316.813385 120.081924,312.471680 122.821083,307.865906 
z"/>
<path fill="#000000" opacity="1.000000" stroke="none" 
	d="
M275.211243,313.815552 
	C279.988708,313.808685 284.304474,314.034973 288.426575,312.168274 
	C296.219025,308.639465 297.859619,300.092804 291.570282,294.311066 
	C285.446808,288.681824 277.632568,285.928558 270.243164,282.521973 
	C265.227539,280.209747 260.433929,277.585236 255.997314,274.300568 
	C231.631317,256.261108 238.198135,224.733856 260.252563,211.714996 
	C273.288269,204.019974 287.104797,203.800461 301.283936,207.231781 
	C308.425415,208.959991 315.229095,211.661453 321.652374,215.305740 
	C324.424713,216.878601 325.428345,218.449097 323.676697,221.666122 
	C320.040497,228.344254 316.820068,235.248810 313.250854,242.417603 
	C305.545135,238.678299 298.505219,234.946060 290.494446,233.742920 
	C285.900482,233.052948 281.526031,233.333435 277.302521,235.180573 
	C270.152313,238.307678 268.914703,246.175125 274.791779,251.288605 
	C279.117828,255.052582 284.291901,257.387787 289.505310,259.638123 
	C299.596893,263.994110 309.473907,268.496002 317.933777,275.960632 
	C337.475067,293.203156 329.745819,326.113068 309.263489,336.198151 
	C293.563385,343.928619 277.274200,344.459656 260.598816,340.743561 
	C250.411346,338.473297 241.121750,334.096252 232.554169,328.094177 
	C229.661163,326.067474 229.047333,324.226105 231.011246,321.108551 
	C235.427185,314.098572 239.553436,306.906097 244.069031,299.332703 
	C254.024384,305.598236 262.905762,312.995239 275.211243,313.815552 
z"/>
</svg>